<?xml version="1.0" encoding="UTF-8"?>
<svg id="origamid-svg" xmlns="http://www.w3.org/2000/svg" viewBox="0 0 143.1 24.6">
  <defs>
    <style>
      .cls-1 {
        fill: #fff;
      }

      .cls-2 {
        fill: #a8f;
      }
    </style>
  </defs>
  <path class="cls-2" d="m68.8,21.2c2.6-.6,5.2-2.1,6.5-5.4h-11.9v-3.2h17v1.5h-.8c-1,5.1-4.6,10.3-12.6,10.5l-1.7-1.7s-2.2,1-2.4,1.2c-5.5-1.6-8.7-6.7-8.7-11.7C54,5.3,59.4,0,66.1,0,70.1,0,72.9,1.2,75.3,3.4l-2,2.7c-1-1.1-3.6-2.9-7.1-2.9-4.8,0-8.8,3.8-8.8,9.2,0,4.5,3.3,8,7.1,8.9,0,0,4.3-.1,4.3-.1Z"/>
  <path class="cls-1" d="m12.3,24.6C5.5,24.6,0,19.1,0,12.3S5.5,0,12.3,0s12.3,5.5,12.3,12.4-5.5,12.2-12.3,12.2Zm0-21.4c-3.7,0-6.6,2-8,5.3-.5,1.2-.8,2.5-.8,3.8s.3,2.6.8,3.8c1.5,3.3,4.4,5.3,8,5.3,3.9,0,6.9-2.2,8.3-5.9.4-1,.6-2.1.6-3.2,0-4.9-3.7-9.1-8.9-9.1Zm27,11.6c-.7.3-1.5.4-2.3.4l6.6,8.8h-4.3l-7.8-11h-.1v11h-3.4V.4h7.3c2.2,0,4.6.4,6.3,2,1.5,1.5,2.2,3.6,2.2,5.6,0,3.2-1.4,5.8-4.5,6.8Zm-4.2-11.2h-3.6v9.1h2.4c3.1,0,6.5-.9,6.5-4.6,0-3.1-2.5-4.5-5.3-4.5Zm11.9,20.5V.4h3.5v23.7h-3.5Zm61.7,0V4.1h-.1l-8,20h-2.1l-8-20h-.1v20h-3.4V.4h5.4l7.1,18.1L106.6.4h5.4v23.7h-3.3Zm7.3,0V.4h3.5v23.7h-3.5Zm24.1-3.4c-2.6,2.6-5.7,3.4-9.2,3.4h-7.6V.4h7.7c3.8,0,7.4,1.2,9.7,4.4,1.5,2.1,2.4,4.9,2.4,7.6s-1,6.3-3,8.3Zm-1.1-12c-1.4-3.4-4.3-5.1-8-5.1h-4.2v17.4h4.1c5.4,0,8.7-3.1,8.7-8.6.1-1.3-.2-2.5-.6-3.7ZM78.8.4l-16.2,23.6c1.2.4,2.5.6,3.9.6h.5l12.5-19.7h.1v19.2h3.5V.4s-4.3,0-4.3,0Z"/>
</svg>